<svg viewBox="0 0 500 500" xmlns="http://www.w3.org/2000/svg">
<defs><clipPath id="victor-rocket-port"><circle cx="0" cy="-40" r="56"></circle></clipPath></defs>
<g transform="translate(260,250) rotate(35) scale(.78)">
  <path d="M-38,195 C-60,260 -20,300 0,340 C20,300 60,260 38,195Z" fill="#ffb86b"></path>
  <path d="M-20,195 C-30,240 -8,262 0,290 C8,262 30,240 20,195Z" fill="#ffe4a8"></path>
  <path d="M-105,40 C-175,85 -195,160 -188,222 L-96,168Z" fill="#b9a4ff"></path>
  <path d="M105,40 C175,85 195,160 188,222 L96,168Z" fill="#8f7ae0"></path>
  <path d="M-62,150 L62,150 L50,198 L-50,198Z" fill="#3a4254"></path>
  <path d="M0,-265 C92,-205 122,-60 112,160 L-112,160 C-122,-60 -92,-205 0,-265Z" fill="#f3f5fa"></path>
  <path d="M0,-265 C92,-205 122,-60 112,160 L40,160 C60,-40 50,-190 0,-265Z" fill="#cdd4e2"></path>
  <path d="M0,-265 C36,-243 62,-212 80,-176 L-80,-176 C-62,-212 -36,-243 0,-265Z" fill="#b9a4ff"></path>
  <path d="M-4,40 L4,40 L4,120 L-4,120Z" fill="#cdd4e2"></path>
  <circle cx="0" cy="-40" r="70" fill="#9aa4ba"></circle>
  <circle cx="0" cy="-40" r="56" fill="#1a2233"></circle>
  <g clip-path="url(#victor-rocket-port)"><g transform="translate(0,-40) rotate(-35) scale(.4) translate(-280,-236)"><path d="M401.39,160.48c-32.06.14-73.22,7.22-94.72,11.38-7.1,12-18.5,38.67-17.43,85.84,1.11,49.08,7,83.09,10.17,98.27,72-27.05,159.92-96.61,146.41-180.3C444,164.09,425.2,160.37,401.39,160.48Z" fill="#cdd4e2"></path><path d="M292.63,72.10c-.53,0-1.08,0-1.65.08C159.91,84.87,121.8,225,129.2,273.63c13.08,86,37.26,105.09,127.48,93.58a173.26,173.26,0,0,0,29.11-6.56c-2.63-14.12-7.67-48.34-7.2-101,.61-67.39,12.6-84.27,13.78-85.77,1.68-5.14,33.05-101.95.26-101.8Z" fill="#f3f5fa"></path><path d="M211.74,180.29h.6c9.81.4,17.32,9.94,16.76,21.3h0c-.56,11.36-9,20.25-18.78,19.85h0c-9.82-.4-17.32-9.93-16.76-21.3h0c.54-11.09,8.59-19.88,18.18-19.86Z" fill="#12161e"></path><path d="M328.24,223.70l.59,0c9.82.4,17.32,9.93,16.77,21.3h0c-.56,11.36-9,20.25-18.78,19.85h0c-9.82-.4-17.32-9.94-16.77-21.3.55-11.1,8.59-19.88,18.19-19.87Z" fill="#12161e"></path><path d="M165.52,303.00c5.68-.07,12.45,1.26,18.38,2.49,14.26,3,23.16,8.78,29.44,18.75,7.9,12.55,24.61,39.48-12.51,32.36-22.13-4.25-40.81-20.92-45.76-34.46-5.48-15,1-19,10.45-19.14Z" fill="#12161e"></path><path d="M361.13,342.60a8.81,8.81,0,0,0-3.65,1.06c-39.84,21.59-98.58,45.08-159.31,38.47-13.59-1.48-28.43,12.92-28.43,12.92s-16.05-8.77-24.43-7.44c-24.61,3.91-32.79,52.17-18.73,64.38,3.93,3.41,15.67,3.53,15.67,3.53s-2.14,10.85-.55,17.63c7.48,31.84,265,26.92,279.31-3.75,10.08-21.58-34.19-128.49-59.88-126.8Z" fill="#f3f5fa"></path><path d="M147.59,393.85c11.47-.35,33.13,12.72,28.33,19.54-6,8.51-5.49,12.36-3.37,22.2S144.48,452.32,135,446.9c-13.26-7.6-5.11-49.32,10.41-52.79a11.83,11.83,0,0,1,2.15-.26Z" fill="#12161e"></path><path d="M260.13,403.48a17.61,17.61,0,0,1,7.28,1.29c13.86,6.62,9.22,48.81-6,53.39-10.38,3.13-36.49-9.4-32-17,5.26-8.92,4.44-12.72,1.51-22.38-2.38-7.84,16.66-15.29,29.18-15.28Z" fill="#12161e"></path><path d="M201.33,402.76a20.76,20.76,0,0,1,3.15.22c12.07,1.82,20.4,13.8,18.6,26.77S210,451.77,198,450h0c-12.08-1.81-20.41-13.79-18.6-26.76h0c1.62-11.68,11-20.38,22-20.43Z" fill="#12161e"></path></g></g>
  <path d="M-38,-78 A56,56 0 0 1 20,-92" fill="none" stroke="rgba(255,255,255,.35)" stroke-width="8" stroke-linecap="round"></path>
  <circle cx="-62" cy="-40" r="6" fill="#cdd4e2"></circle><circle cx="62" cy="-40" r="6" fill="#9aa4ba"></circle>
</g></svg>