<?xml version="1.0" encoding="UTF-8"?>
<svg id="Layer_2" data-name="Layer 2" xmlns="http://www.w3.org/2000/svg" viewBox="0 0 374 374">
  <defs>
    <style>
      .cls-1 {
        fill: #fff;
      }

      .cls-2 {
        fill: none;
      }
    </style>
  </defs>
  <g id="Layer_3" data-name="Layer 3">
    <g>
      <rect class="cls-2" width="374" height="374"/>
      <g>
        <g>
          <path class="cls-1" d="M184.50134,164.59629l-25.97081-25.97081c-2.03777-2.03777-5.34163-2.03742-7.37905,0l-12.52594,12.52594c-2.03777,2.03777-2.03777,5.34128,0,7.37905l25.97081,25.97081,19.90499-19.90499Z"/>
          <path class="cls-1" d="M171.74614,191.65106l119.04469,119.04469c2.03768,2.03768,5.34119,2.03768,7.37896-.00009l12.52594-12.52594c2.03742-2.03742,2.03777-5.34128,.00009-7.37896l-119.04469-119.04469-19.90499,19.90499Z"/>
        </g>
        <g>
          <path class="cls-1" d="M51.19514,199.07741l39.50441,39.50441c5.47214,5.47214,14.34412,5.47214,19.81625,0l-59.32067-59.32067c-5.47214,5.47214-5.47214,14.34412,0,19.81625Z"/>
          <path class="cls-1" d="M179.26122,51.19507l59.32067,59.32067c5.47214-5.47214,5.47214-14.34412,0-19.81625l-39.50441-39.50441c-5.47214-5.47214-14.34412-5.47214-19.81625,0Z"/>
          <rect class="cls-1" x="64.44344" y="102.9424" width="160.89014" height="83.89209" transform="translate(-60.01474 144.88849) rotate(-45)"/>
        </g>
      </g>
    </g>
  </g>
</svg>