<svg width="16" height="16" viewBox="0 0 16 16" fill="none" xmlns="http://www.w3.org/2000/svg">
  <path d="M1 12V6C1 5.44772 1.44771 5 2 5H11C11.5523 5 12 5.44772 12 6V12C12 12.5523 11.5523 13 11 13H2C1.44772 13 1 12.5523 1 12Z" fill="white"/>
  <path d="M11.2655 4H1.73452C0.776808 4 0 4.71705 0 5.60109V12.1266C0 13.0106 0.776808 13.7277 1.73452 13.7277H10.4568L13 16V12.1266V6.09877V5.60109C13 4.71705 12.2232 4 11.2655 4ZM11.8827 11.8778C11.8827 12.2707 11.5351 12.5915 11.1094 12.5915H1.89059C1.46494 12.5915 1.11733 12.2707 1.11733 11.8778V5.78445C1.11733 5.39154 1.46494 5.07067 1.89059 5.07067H11.1059C11.5315 5.07067 11.8791 5.39154 11.8791 5.78445V11.8778H11.8827Z" fill="white"/>
  <path d="M13 1.75C11.7592 1.75 10.75 2.7591 10.75 4C10.75 5.24073 11.7592 6.25 13 6.25C14.2408 6.25 15.25 5.24073 15.25 4C15.25 2.7591 14.2408 1.75 13 1.75ZM13.0065 3.69565C13.1779 3.69565 13.3169 3.83458 13.3169 4.00608C13.3169 4.17733 13.178 4.31631 13.0065 4.31631C12.8351 4.31631 12.6963 4.17744 12.6963 4.00608C12.6963 3.83447 12.8352 3.69565 13.0065 3.69565Z" stroke="#1D252B" stroke-width="0.5"/>
  <path d="M11.3688 1.6345L11.3688 3.18507H12.0235V1.6345C12.0235 1.11562 12.4633 0.693502 13.0037 0.693502C13.5442 0.693502 13.9839 1.11562 13.9839 1.6345V3.18507L14.6387 3.18506V1.6345C14.6387 0.769062 13.9052 0.0649414 13.0037 0.0649414C12.1023 0.0649414 11.3688 0.769062 11.3688 1.6345" fill="white"/>
  <path d="M13 2C11.8973 2 11 2.89718 11 4C11 5.10266 11.8973 6 13 6C14.1027 6 15 5.10266 15 4C15 2.89718 14.1027 2 13 2ZM13.0065 3.44565C13.316 3.44565 13.5669 3.69647 13.5669 4.00608C13.5669 4.3155 13.316 4.56631 13.0065 4.56631C12.697 4.56631 12.4463 4.3155 12.4463 4.00608C12.4463 3.69647 12.697 3.44565 13.0065 3.44565Z" fill="white"/>
</svg>