<svg width="29" height="10" viewBox="0 0 29 10" fill="none" xmlns="http://www.w3.org/2000/svg">
	<path d="M4.3426 0.994421C6.74095 0.994421 8.6852 3.01039 8.6852 5.49721C8.6852 7.98403 6.74095 10 4.3426 10C1.94425 10 0 7.98403 0 5.49721C0 3.01039 1.94425 0.994421 4.3426 0.994421Z" fill="white"/>
	<path d="M15 2C17.2091 2 19 3.79086 19 6C19 8.20914 17.2091 10 15 10C12.7909 10 11 8.20914 11 6C11 3.79086 12.7909 2 15 2Z" fill="white" fill-opacity="0.75"/>
	<path d="M25.5 3C27.433 3 29 4.567 29 6.5C29 8.433 27.433 10 25.5 10C23.567 10 22 8.433 22 6.5C22 4.567 23.567 3 25.5 3Z" fill="white" fill-opacity="0.5"/>
</svg>