<svg width="16" height="16" viewBox="0 0 16 16" fill="none" xmlns="http://www.w3.org/2000/svg">
<path opacity="0.75" d="M10.0478 8L15.5744 2.4734C16.1419 1.90594 16.1419 0.986893 15.5744 0.425598C15.0069 -0.141866 14.0879 -0.141866 13.5266 0.425598L8 5.9522L2.4734 0.425598C1.90594 -0.141866 0.986893 -0.141866 0.425598 0.425598C-0.141866 0.993061 -0.141866 1.9121 0.425598 2.4734L4.49036 6.53817L5.94603 7.99383L4.49036 9.4495L0.425598 13.5266C-0.141866 14.0941 -0.141866 15.0131 0.425598 15.5744C0.993061 16.1419 1.9121 16.1419 2.4734 15.5744L8 10.0478L13.5266 15.5744C13.8103 15.8581 14.1804 16 14.5505 16C14.9206 16 15.2907 15.8581 15.5744 15.5744C16.1419 15.0069 16.1419 14.0879 15.5744 13.5266L10.0478 8Z" fill="white"/>
</svg>
