<svg xmlns="http://www.w3.org/2000/svg" viewBox="0 0 374 374">
    <g>
        <path fill="#fff" class="cls-2" d="M258.0435,60.67434H115.95659A21.61031,21.61031,0,0,0,94.37065,82.26028v56.064h19.93164v-56.064a1.65627,1.65627,0,0,1,1.6543-1.6543H258.0435a1.65627,1.65627,0,0,1,1.6543,1.6543V307.01174a1.65627,1.65627,0,0,1-1.6543,1.6543H115.95659a1.65627,1.65627,0,0,1-1.6543-1.6543v-68.6875H94.37065v68.6875a21.6103,21.6103,0,0,0,21.58594,21.58594H258.0435a21.6103,21.6103,0,0,0,21.58594-21.58594V82.26028A21.61031,21.61031,0,0,0,258.0435,60.67434Z" />
        <polygon fill="#fff" class="cls-2" points="150.034 137.264 135.94 151.358 162.94 178.358 32.419 178.358 32.419 198.29 162.939 198.29 135.94 225.29 150.034 239.383 201.093 188.324 150.034 137.264" />
    </g> 
</svg>