<svg xmlns="http://www.w3.org/2000/svg" viewBox="0 0 374 374">
    <g>
        <path fill="#fff" d="M187.0002,103.73192l-109.86421,109.86421v101.87457c0,4.41261,3.57683,7.98973,7.98973,7.98973h74.40842v-82.39816h54.9321v82.39816h74.40803c4.41291,0,7.99012-3.57712,7.99012-7.98973v-101.87457l-109.86421-109.86421Z" />
        <path fill="#fff" d="M339.2425,199.47355l-42.37809-42.37809V84.25404c0-4.41173-3.57644-7.98817-7.98817-7.98817h-38.95576c-4.41173,0-7.98817,3.57644-7.98817,7.98817v17.90911l-49.2844-49.2842c-3.11919-3.11939-8.17622-3.11939-11.29541,0L34.7579,199.47355c-3.11919,3.11919-3.11919,8.17642,0,11.29561l5.65395,5.65375c3.11919,3.11919,8.17622,3.11919,11.29541,0L187.0002,81.13056l135.29294,135.29235c3.11919,3.11919,8.17622,3.11919,11.29541,0l5.65395-5.65375c3.11919-3.11919,3.11919-8.17642,0-11.29561Z" />
    </g>
</svg>