<svg width="9" height="13" viewBox="0 0 9 13" fill="none" xmlns="http://www.w3.org/2000/svg">
<path d="M7.97191 6.08764V3.47865C7.97191 1.59438 6.37753 0 4.34831 0C2.46405 0 0.869663 1.59438 0.869663 3.47865V6.08764C0.289888 6.81236 0 7.68202 0 8.55169C0 11.0157 2.02921 12.9 4.34831 12.9C6.66742 12.9 8.69663 10.8708 8.69663 8.55169C8.69663 7.68202 8.40674 6.81236 7.97191 6.08764ZM4.34831 1.30449C5.50787 1.30449 6.52247 2.17416 6.52247 3.33371V4.78315C5.9427 4.49326 5.21798 4.20337 4.34831 4.20337C3.6236 4.20337 2.89888 4.49326 2.17416 4.78315V3.47865C2.17416 2.3191 3.18876 1.30449 4.34831 1.30449ZM4.34831 9.85618C3.6236 9.85618 3.18876 9.2764 3.18876 8.69663C3.18876 8.11685 3.76854 7.39213 4.34831 7.39213C4.92809 7.39213 5.50786 7.97191 5.50786 8.55169C5.50786 9.13146 5.07303 9.85618 4.34831 9.85618Z" fill="white"/>
</svg>
