<svg id="svg8"
    xmlns="http://www.w3.org/2000/svg"
    xmlns:xlink="http://www.w3.org/1999/xlink" viewBox="0 0 566.93 566.93">
    <defs>
        <style>.cls-1{fill-opacity:1;fill:url(#linear-gradient);}.cls-2{fill:#fff;}</style>
        <linearGradient id="linear-gradient" x1="82.82" y1="450.97" x2="518.04" y2="87.64" gradientUnits="userSpaceOnUse">
            <stop offset="0" stop-color="#bf06fd"/>
            <stop offset="1" stop-color="#0c06fd"/>
        </linearGradient>
    </defs>
    <circle id="path980" class="cls-1" cx="283.46" cy="283.46" r="283.46"/>
    <path id="Victor" class="cls-2" d="M292.63,72.1c-.53,0-1.08,0-1.65.08C159.91,84.87,121.8,225,129.2,273.63c13.08,86,37.26,105.09,127.48,93.58a173.26,173.26,0,0,0,29.11-6.56c-2.63-14.12-7.67-48.34-7.2-101,.61-67.39,12.6-84.27,13.78-85.77,1.68-5.14,33.05-101.95.26-101.8Zm108.76,88.38c-32.06.14-73.22,7.22-94.72,11.38-7.1,12-18.5,38.67-17.43,85.84,1.11,49.08,7,83.09,10.17,98.27,72-27.05,159.92-96.61,146.41-180.3C444,164.09,425.2,160.37,401.39,160.48ZM211.74,180.29h.6c9.81.4,17.32,9.94,16.76,21.3h0c-.56,11.36-9,20.25-18.78,19.85h0c-9.82-.4-17.32-9.93-16.76-21.3h0c.54-11.09,8.59-19.88,18.18-19.86Zm116.5,43.41.59,0c9.82.4,17.32,9.93,16.77,21.3h0c-.56,11.36-9,20.25-18.78,19.85h0c-9.82-.4-17.32-9.94-16.77-21.3.55-11.1,8.59-19.88,18.19-19.87ZM165.52,303c5.68-.07,12.45,1.26,18.38,2.49,14.26,3,23.16,8.78,29.44,18.75,7.9,12.55,24.61,39.48-12.51,32.36-22.13-4.25-40.81-20.92-45.76-34.46-5.48-15,1-19,10.45-19.14ZM361.13,342.6a8.81,8.81,0,0,0-3.65,1.06c-39.84,21.59-98.58,45.08-159.31,38.47-13.59-1.48-28.43,12.92-28.43,12.92s-16.05-8.77-24.43-7.44c-24.61,3.91-32.79,52.17-18.73,64.38,3.93,3.41,15.67,3.53,15.67,3.53s-2.14,10.85-.55,17.63c7.48,31.84,265,26.92,279.31-3.75,10.08-21.58-34.19-128.49-59.88-126.8ZM147.59,393.85c11.47-.35,33.13,12.72,28.33,19.54-6,8.51-5.49,12.36-3.37,22.2S144.48,452.32,135,446.9c-13.26-7.6-5.11-49.32,10.41-52.79a11.83,11.83,0,0,1,2.15-.26Zm53.74,8.91a20.76,20.76,0,0,1,3.15.22c12.07,1.82,20.4,13.8,18.6,26.77S210,451.77,198,450h0c-12.08-1.81-20.41-13.79-18.6-26.76h0c1.62-11.68,11-20.38,22-20.43Zm58.8.72a17.61,17.61,0,0,1,7.28,1.29c13.86,6.62,9.22,48.81-6,53.39-10.38,3.13-36.49-9.4-32-17,5.26-8.92,4.44-12.72,1.51-22.38-2.38-7.84,16.66-15.29,29.18-15.28Z"/>
    <circle id="Star" class="cls-2" cx="48.58" cy="217.51" r="6.2"/>
    <circle class="cls-2" cx="404.69" cy="65.72" r="6.38"/>
    <circle class="cls-2" cx="440.61" cy="336.5" r="6.08"/>
    <circle class="cls-2" cx="498.31" cy="252.26" r="2.36"/>
    <circle class="cls-2" cx="91.07" cy="344.8" r="2.22"/>
    <circle class="cls-2" cx="191.03" cy="35.06" r="2.5"/>
    <circle class="cls-2" cx="306.77" cy="527.66" r="5.32"/>
    <circle class="cls-2" cx="198.97" cy="515.93" r="2.24"/>
    <circle class="cls-2" cx="478.21" cy="405.49" r="2.73"/>
</svg>