<?xml version="1.0" encoding="UTF-8"?>
<svg id="svg8" xmlns="http://www.w3.org/2000/svg" version="1.1" xmlns:xlink="http://www.w3.org/1999/xlink" viewBox="0 0 566.9 566.9">
  <!-- Generator: Adobe Illustrator 29.1.0, SVG Export Plug-In . SVG Version: 2.1.0 Build 142)  -->
  <defs>
    <linearGradient id="linear-gradient" x1=".9" y1="519.4" x2="613.9" y2="7.6" gradientUnits="userSpaceOnUse">
      <stop offset=".2" stop-color="#bf06fd"/>
      <stop offset=".9" stop-color="#00faff"/>
    </linearGradient>
  </defs>
  <rect width="566.9" height="566.9" fill="url(#linear-gradient)"/>
  <path id="Victor" d="M292.6,72.1c-.5,0-1.1,0-1.6,0-131.1,12.7-169.2,152.8-161.8,201.5,13.1,86,37.3,105.1,127.5,93.6,9.9-1.3,19.6-3.5,29.1-6.6-2.6-14.1-7.7-48.3-7.2-101,.6-67.4,12.6-84.3,13.8-85.8,1.7-5.1,33-101.9.3-101.8h0ZM401.4,160.5c-32.1.1-73.2,7.2-94.7,11.4-7.1,12-18.5,38.7-17.4,85.8,1.1,49.1,7,83.1,10.2,98.3,72-27,159.9-96.6,146.4-180.3-1.8-11.6-20.6-15.3-44.4-15.2ZM211.7,180.3h.6c9.8.4,17.3,9.9,16.8,21.3h0c-.6,11.4-9,20.2-18.8,19.9h0c-9.8-.4-17.3-9.9-16.8-21.3h0c.5-11.1,8.6-19.9,18.2-19.9h0ZM328.2,223.7h.6c9.8.4,17.3,9.9,16.8,21.3h0c-.6,11.4-9,20.2-18.8,19.9h0c-9.8-.4-17.3-9.9-16.8-21.3.5-11.1,8.6-19.9,18.2-19.9h0ZM165.5,303c5.7,0,12.4,1.3,18.4,2.5,14.3,3,23.2,8.8,29.4,18.8,7.9,12.5,24.6,39.5-12.5,32.4-22.1-4.2-40.8-20.9-45.8-34.5-5.5-15,1-19,10.4-19.1h0ZM361.1,342.6c-1.3,0-2.5.4-3.6,1.1-39.8,21.6-98.6,45.1-159.3,38.5-13.6-1.5-28.4,12.9-28.4,12.9,0,0-16.1-8.8-24.4-7.4-24.6,3.9-32.8,52.2-18.7,64.4,3.9,3.4,15.7,3.5,15.7,3.5,0,0-2.1,10.9-.6,17.6,7.5,31.8,265,26.9,279.3-3.8,10.1-21.6-34.2-128.5-59.9-126.8h0ZM147.6,393.9c11.5-.4,33.1,12.7,28.3,19.5-6,8.5-5.5,12.4-3.4,22.2s-28.1,16.7-37.6,11.3c-13.3-7.6-5.1-49.3,10.4-52.8.7-.2,1.4-.2,2.1-.3h0ZM201.3,402.8c1.1,0,2.1,0,3.1.2,12.1,1.8,20.4,13.8,18.6,26.8s-13.1,22-25.1,20.2h0c-12.1-1.8-20.4-13.8-18.6-26.8h0c1.6-11.7,11-20.4,22-20.4h0ZM260.1,403.5c2.5,0,5,.3,7.3,1.3,13.9,6.6,9.2,48.8-6,53.4-10.4,3.1-36.5-9.4-32-17,5.3-8.9,4.4-12.7,1.5-22.4-2.4-7.8,16.7-15.3,29.2-15.3h0Z" fill="#fff"/>
  <circle id="Star" cx="48.6" cy="217.5" r="6.2" fill="#fff"/>
  <circle cx="404.7" cy="65.7" r="6.4" fill="#fff"/>
  <circle cx="440.6" cy="336.5" r="6.1" fill="#fff"/>
  <circle cx="498.3" cy="252.3" r="2.4" fill="#fff"/>
  <circle cx="91.1" cy="344.8" r="2.2" fill="#fff"/>
  <circle cx="191" cy="35.1" r="2.5" fill="#fff"/>
  <circle cx="306.8" cy="527.7" r="5.3" fill="#fff"/>
  <circle cx="199" cy="515.9" r="2.2" fill="#fff"/>
  <circle cx="478.2" cy="405.5" r="2.7" fill="#fff"/>
</svg>