<?xml version="1.0" encoding="UTF-8"?>
<svg id="Layer_2" data-name="Layer 2" xmlns="http://www.w3.org/2000/svg" viewBox="0 0 374 374">
  <defs>
    <style>
      .cls-1 {
        opacity: .1;
      }

      .cls-1, .cls-2 {
        fill: #fff;
        isolation: isolate;
      }
    </style>
  </defs>
  <g id="Layer_3" data-name="Layer 3">
    <g id="Layer_2-2" data-name="Layer 2">
      <g id="Layer_5" data-name="Layer 5">
        <path class="cls-1" d="M342.69053,105.91118v-32.43553c0-14.33092-11.6175-25.94842-25.94842-25.94842H57.2579c-14.33092,0-25.94842,11.6175-25.94842,25.94842v32.43553h-6.48711v-32.43553c0-17.91365,14.52188-32.43553,32.43553-32.43553H316.7421c17.91364,0,32.43553,14.52188,32.43553,32.43553v32.43553h-6.48711Z"/>
        <path class="cls-2" d="M316.74181,41.04038H57.25899c-17.91379,0-32.43503,14.52124-32.43503,32.43503v32.43503H349.17685v-32.43503c0-17.91379-14.52124-32.43503-32.43503-32.43503ZM57.25899,89.69421c-8.95817,0-16.2188-7.2619-16.2188-16.2188s7.26062-16.21752,16.2188-16.21752c8.95562,0,16.21624,7.26062,16.21624,16.21752s-7.26062,16.2188-16.21624,16.2188Zm48.65383,0c-8.95817,0-16.2188-7.2619-16.2188-16.2188s7.26062-16.21752,16.2188-16.21752c8.95562,0,16.21624,7.26062,16.21624,16.21752s-7.26062,16.2188-16.21624,16.2188Zm48.65127,0c-8.95562,0-16.2188-7.2619-16.2188-16.2188s7.26318-16.21752,16.2188-16.21752c8.95817,0,16.2188,7.26062,16.2188,16.21752s-7.26062,16.2188-16.2188,16.2188Z"/>
        <g>
          <path class="cls-2" d="M279.92129,294.03724H57.2579c-14.33092,0-25.94842-11.6175-25.94842-25.94842V105.91118h-6.48711v162.17763c0,17.91364,14.52188,32.43553,32.43553,32.43553h222.66339v-6.48711Z"/>
          <path class="cls-2" d="M342.69053,105.91118v162.17763c0,14.33092-11.6175,25.94842-25.94842,25.94842h-21.66693v6.48711h21.66693c17.91364,0,32.43553-14.52189,32.43553-32.43553h0V105.91118h-6.48711Z"/>
        </g>
        <path fill="#05ff00" d="M287.49824,209.60107c-34.06459,0-61.67941,27.6148-61.67941,61.67941s27.6148,61.67939,61.67939,61.67939,61.67941-27.6148,61.67941-61.67939h0c0-34.06459-27.6148-61.67941-61.67939-61.67941Zm40.52495,66.03874c0,1.79136-1.45219,3.24355-3.24355,3.24355h-26.49336c-1.76612,.01758-3.19355,1.44501-3.21113,3.21113v26.51929c-.01778,1.77869-1.46479,3.2112-3.24355,3.21113h-8.6927c-1.77877,.00008-3.22577-1.43244-3.24355-3.21113v-26.54526c.00358-1.76986-1.42826-3.20754-3.19812-3.21113h-26.50634c-1.79136,0-3.24355-1.45219-3.24355-3.24355v-8.6927c0-1.79136,1.45219-3.24355,3.24355-3.24355h26.51929c1.76612-.01758,3.19355-1.44501,3.21113-3.21113v-26.49334c0-1.79136,1.45219-3.24355,3.24355-3.24355h8.71867c1.79136,0,3.24355,1.45219,3.24355,3.24355v26.51929c.01758,1.76612,1.44501,3.19355,3.21113,3.21113h26.51929c1.79136,0,3.24355,1.45219,3.24355,3.24355l-.07786,8.69272Z"/>
      </g>
    </g>
  </g>
</svg>