<?xml version="1.0" encoding="UTF-8"?>
<svg id="Layer_2" data-name="Layer 2" xmlns="http://www.w3.org/2000/svg" viewBox="0 0 374 374">
  <defs>
    <style>
      .cls-1 {
        fill: #fff;
      }

      .cls-2 {
        fill: none;
      }
    </style>
  </defs>
  <g id="Layer_3" data-name="Layer 3">
    <g>
      <rect class="cls-2" width="374" height="374"/>
      <g>
        <path class="cls-1" d="M116.08991,126.80111c0-39.10001,31.8098-70.91041,70.91034-70.91041s70.91101,31.81039,70.91101,70.91041c0,18.32868-6.98993,35.05548-18.44409,47.65468,.00896,.00658,.01794,.01256,.0269,.01914-9.92043,10.9172-23.2019,18.72093-38.20782,21.79076-.00896,.00179-.01853,.00419-.0281,.00598-1.12173,.22901-2.25244,.43231-3.39272,.60751-.06518,.01016-.13035,.01913-.19493,.02869-1.1032,.16683-2.21417,.30973-3.33412,.42514-.09028,.00957-.18177,.01674-.27265,.02572-1.10978,.11002-2.22614,.19731-3.35027,.25532-.07892,.00419-.15785,.00598-.23679,.00957-1.14625,.0556-2.29848,.0879-3.45788,.0879-.00658,0-.01256,.00059-.01854,.00059-.00598,0-.01256-.00059-.01853-.00059-1.16001,0-2.31224-.0323-3.45789-.0879-.07892-.00359-.15845-.00538-.23678-.00957-1.12473-.058-2.24049-.1453-3.35086-.25532-.09029-.00898-.18178-.01615-.27207-.02572-1.11994-.11541-2.23091-.25831-3.33412-.42514-.06517-.00957-.12975-.01853-.19492-.02869-1.14028-.1752-2.27158-.3785-3.39391-.60751-.00898-.00179-.01794-.00358-.0269-.00598-15.00593-3.06983-28.28739-10.87356-38.20783-21.79076,.00897-.00658,.01794-.01256,.02691-.01914-11.45379-12.59921-18.44343-29.326-18.44343-47.65468h0Z"/>
        <path class="cls-1" d="M120.97144,186.32732c16.2897,18.05183,39.85575,29.41749,66.02822,29.41749s49.73911-11.36566,66.02881-29.41749c28.8052,29.37265,47.58054,77.45068,47.58054,131.78197H73.39099c0-54.33129,18.77537-102.40932,47.58045-131.78197Z"/>
      </g>
    </g>
  </g>
</svg>