<?xml version="1.0" encoding="utf-8"?>
<!-- Generator: Adobe Illustrator 25.4.7, SVG Export Plug-In . SVG Version: 6.00 Build 0)  -->
<svg version="1.1" id="Layer_1" xmlns="http://www.w3.org/2000/svg" xmlns:xlink="http://www.w3.org/1999/xlink" x="0px" y="0px"
	 viewBox="0 0 500 500" style="enable-background:new 0 0 500 500;" xml:space="preserve">
<style type="text/css">
	.st0{fill:#a1a1a1;}
</style>
<g id="Layer_2_00000103948898205671049440000001229412006896276624_">
	<g id="Layer_4">
		<path class="st0" d="M250,11.5C118.3,11.5,11.5,118.3,11.5,250S118.3,488.5,250,488.5S488.5,381.7,488.5,250l0,0
			C488.5,118.3,381.7,11.5,250,11.5z M406.7,266.9c0,6.9-5.6,12.5-12.5,12.5H291.7c-6.8,0.1-12.3,5.6-12.4,12.4v102.5
			c-0.1,6.9-5.7,12.4-12.5,12.4h-33.6c-6.9,0-12.5-5.5-12.5-12.4V291.7c-0.1-6.8-5.6-12.3-12.4-12.4H105.7
			c-6.9,0-12.5-5.6-12.5-12.5v-33.6c0-6.9,5.6-12.5,12.5-12.5h102.5c6.8-0.1,12.3-5.6,12.4-12.4V105.7c0-6.9,5.6-12.5,12.5-12.5H267
			c6.9,0,12.5,5.6,12.5,12.5v102.5c0.1,6.8,5.6,12.3,12.4,12.4h102.5c6.9,0,12.5,5.6,12.5,12.5L406.7,266.9z"/>
	</g>
</g>
</svg>
