<?xml version="1.0" encoding="UTF-8"?>
<svg id="Layer_2" data-name="Layer 2" xmlns="http://www.w3.org/2000/svg" viewBox="0 0 374 374">
  <defs>
    <style>
      .cls-1 {
        fill: #fff;
      }

      .cls-2 {
        fill: none;
      }
    </style>
  </defs>
  <g id="Layer_3" data-name="Layer 3">
    <g>
      <rect class="cls-2" x="0" width="374" height="374"/>
      <g>
        <path class="cls-1" d="M219.00219,140.71246l-59.2343-.00014c-9.34383,.00027-16.91844,7.57488-16.91803,16.9183v59.23416c.00014,4.48695,1.78262,8.79015,4.95545,11.96298l87.14987,87.14987c6.607,6.607,17.31856,6.60741,23.92583,.00014l59.23416-59.23416c6.60727-6.60727,6.60741-17.31937,.00041-23.92637l-87.14987-87.14987c-3.17283-3.17283-7.47604-4.95532-11.96353-4.95491Zm-21.16585,50.84305c-6.25955,6.25955-16.40931,6.25982-22.66926-.00014-6.25995-6.25995-6.25968-16.40972-.00014-22.66926,6.26009-6.26009,16.40985-6.26036,22.66981-.00041,6.25995,6.25995,6.25968,16.40972-.00041,22.66981Z"/>
        <path class="cls-1" d="M143.67305,152.42802c.94238,.68774,1.89893,1.40991,2.88037,2.19116l8.7207-10.95117c-.70801-.56372-1.40576-1.09521-2.10205-1.62109-4.49316,1.90405-7.98584,5.69763-9.49902,10.3811Z"/>
        <path class="cls-1" d="M140.73366,138.59675c.96826-.96851,1.99854-1.85278,3.07959-2.65186-9.1001-4.95117-17.15283-6.19531-24.38379-3.75879-5.4209,1.82568-8.30469,5.13086-10.62207,7.78711-1.86719,2.13916-3.47852,3.98633-6.71777,5.70898-6.11621,3.25293-16.22949,4.88623-23.98242,.78613-10.0293-5.30518-14.16992-19.79492-12.97461-30.73438,.58008-5.30908,2.32812-8.35742,4.74805-12.57666,2.56641-4.47559,5.76074-10.04541,7.81543-19.17285,2.22754-9.89307,2.32422-20.29541,.28711-30.91748l-13.75,2.63672c1.67285,8.7207,1.60645,17.20117-.19531,25.20605-1.59082,7.06836-3.87988,11.05859-6.30176,15.28271-2.76465,4.81982-5.62305,9.8042-6.52148,18.02051-1.68457,15.4209,3.96387,35.96484,20.3457,44.63037,5.56055,2.94141,11.4541,4.09863,17.07812,4.09863,7.69922,0,14.8916-2.16943,20.02539-4.89941,5.5166-2.93408,8.50781-6.36182,10.69238-8.86475,1.92871-2.21045,2.78125-3.13086,4.54199-3.72412,2.88135-.97144,6.62354-.3855,11.07031,1.68201,1.3335-3.15051,3.27295-6.04688,5.76514-8.53894Z"/>
      </g>
    </g>
  </g>
</svg>