<?xml version="1.0" encoding="utf-8"?>
<!-- Generator: Adobe Illustrator 25.4.7, SVG Export Plug-In . SVG Version: 6.00 Build 0)  -->
<svg id="Layer_1" data-name="Layer 1" xmlns="http://www.w3.org/2000/svg" viewBox="0 0 512 512">
  <defs>
    <style>
      .cls-1 {
      fill: #00faff;
      }
    </style>
  </defs>
  <path class="cls-1" d="M256,0C114.62,0,0,114.62,0,256s114.62,256,256,256,256-114.62,256-256S397.38,0,256,0Zm-77.47,388.46c-8.1,5.46-21.04,.15-28.28-3.17-14.7-6.74-119.94-54.97-109.06-89.47,1.96-6.22,7-9.75,8.89-11.08,10.41-7.33,262.4-184.99,291.64-206.65,4.49-3.33,20.11-15.11,22.62-12.67,2.25,2.19-7.13,14.71-9.69,18.21-35.92,48.95-160.65,268.98-170.46,296.92-.41,1.17-1.78,5.31-5.66,7.92ZM372.53,91.03c-2.69,35.41-18.08,334.92-18.7,347.29-.11,2.25-.41,8.22-4.7,13.54-23.81,29.49-123.03-20-136.88-26.91-6.82-3.4-18.48-9.88-18.21-19.34,.13-4.53,2.95-8.11,3.74-9.15,18.74-24.64,140.32-254.45,162.9-311.74,1.61-4.09,7.29-18.89,10.41-18.55,3.48,.38,1.86,19.43,1.45,24.86Z"/>
</svg>
