<svg width="24" height="24" viewBox="0 0 24 24" fill="none" xmlns="http://www.w3.org/2000/svg">
<path d="M23.0375 13.9321V10.5898C23.0375 10.3176 22.8164 10.105 22.5527 10.105H21.5322C21.311 10.105 21.1239 9.96041 21.0644 9.73929C20.8518 8.93135 20.5286 8.16593 20.1119 7.44304C20.0013 7.25593 20.0353 7.0093 20.1884 6.85621L20.9113 6.13332C21.0984 5.94622 21.0984 5.63154 20.9113 5.44444L18.547 3.08014C18.3599 2.89304 18.0452 2.89304 17.8581 3.08014L17.1352 3.80304C16.9822 3.95612 16.7355 3.99014 16.5484 3.87958C15.8255 3.46285 15.0601 3.14818 14.2522 2.92706C14.0395 2.86753 13.8865 2.68043 13.8865 2.4593V1.43875C13.8865 1.1666 13.6653 0.953979 13.4017 0.953979H10.0594C9.78722 0.953979 9.5746 1.1751 9.5746 1.43875V2.4593C9.5746 2.68043 9.43002 2.86753 9.2089 2.92706C8.40096 3.13968 7.63554 3.46285 6.91264 3.87958C6.72554 3.99014 6.4789 3.95612 6.32582 3.80304L5.60292 3.08014C5.41582 2.89304 5.10115 2.89304 4.91404 3.08014L2.54975 5.44444C2.36265 5.63154 2.36265 5.94622 2.54975 6.13332L3.27265 6.85621C3.42573 7.0093 3.45975 7.25593 3.34919 7.44304C2.93246 8.16593 2.61779 8.93135 2.39666 9.73929C2.33713 9.95191 2.15003 10.105 1.92891 10.105H0.90835C0.636201 10.105 0.423584 10.3261 0.423584 10.5898V13.9321C0.423584 14.2042 0.644705 14.4169 0.90835 14.4169H1.92891C2.15003 14.4169 2.33713 14.5614 2.39666 14.7826C2.60928 15.5905 2.93246 16.3559 3.34919 17.0788C3.45975 17.2659 3.42573 17.5126 3.27265 17.6656L2.54975 18.3885C2.36265 18.5756 2.36265 18.8903 2.54975 19.0774L4.91404 21.4417C5.10115 21.6288 5.41582 21.6288 5.60292 21.4417L6.32582 20.7188C6.4789 20.5657 6.72554 20.5317 6.91264 20.6423C7.63554 21.059 8.40096 21.3737 9.2089 21.5948C9.42151 21.6543 9.5746 21.8414 9.5746 22.0625V23.0831C9.5746 23.3553 9.79572 23.5679 10.0594 23.5679H13.4017C13.6738 23.5679 13.8865 23.3468 13.8865 23.0831V22.0625C13.8865 21.8414 14.031 21.6543 14.2522 21.5948C15.0601 21.3822 15.8255 21.059 16.5484 20.6423C16.7355 20.5317 16.9822 20.5657 17.1352 20.7188L17.8581 21.4417C18.0452 21.6288 18.3599 21.6288 18.547 21.4417L20.9113 19.0774C21.0984 18.8903 21.0984 18.5756 20.9113 18.3885L20.1884 17.6656C20.0353 17.5126 20.0013 17.2659 20.1119 17.0788C20.5286 16.3559 20.8433 15.5905 21.0644 14.7826C21.1239 14.5699 21.311 14.4169 21.5322 14.4169H22.5527C22.8249 14.4169 23.0375 14.2042 23.0375 13.9321ZM17.1267 12.6054C17.1182 12.6819 17.1182 12.7584 17.1097 12.8265C17.1097 12.8435 17.1012 12.8605 17.1012 12.8775C17.0927 12.9541 17.0842 13.0306 17.0672 13.1071C17.0672 13.1156 17.0672 13.1327 17.0587 13.1412C17.0417 13.2177 17.0332 13.3027 17.0162 13.3793C17.0162 13.3878 17.0162 13.3878 17.0077 13.3963C16.9907 13.4813 16.9737 13.5664 16.9481 13.6429C16.9481 13.6429 16.9481 13.6429 16.9481 13.6514C16.8886 13.8811 16.8121 14.1107 16.7185 14.3318C16.7015 14.3743 16.6845 14.4254 16.659 14.4679C16.6505 14.4849 16.642 14.5019 16.6335 14.5189C16.608 14.5784 16.5739 14.638 16.5484 14.706C16.5399 14.7315 16.5229 14.7485 16.5144 14.7741C16.4889 14.8251 16.4549 14.8761 16.4294 14.9356C16.4123 14.9612 16.3953 14.9952 16.3783 15.0207C16.3528 15.0632 16.3188 15.1142 16.2933 15.1568C16.2763 15.1908 16.2508 15.2248 16.2337 15.2503C16.2082 15.2928 16.1742 15.3354 16.1487 15.3779C16.1232 15.4119 16.1062 15.4459 16.0807 15.4799C16.0552 15.5225 16.0211 15.5565 15.9871 15.599C15.9616 15.633 15.9361 15.667 15.9106 15.6926C15.8766 15.7351 15.834 15.7776 15.8 15.8201C15.7745 15.8456 15.7575 15.8712 15.732 15.8967C15.6724 15.9647 15.6129 16.0327 15.5449 16.0923C15.4768 16.1603 15.4173 16.2198 15.3493 16.2794C15.3237 16.3049 15.2982 16.3219 15.2727 16.3474C15.2302 16.3814 15.1877 16.424 15.1452 16.458C15.1111 16.4835 15.0856 16.509 15.0516 16.5345C15.0091 16.5685 14.9751 16.5941 14.9325 16.6281C14.8985 16.6536 14.8645 16.6791 14.8305 16.6961C14.788 16.7216 14.7454 16.7556 14.7029 16.7812C14.6689 16.7982 14.6434 16.8237 14.6094 16.8407C14.5668 16.8662 14.5158 16.9002 14.4733 16.9257C14.4478 16.9427 14.4137 16.9597 14.3882 16.9768C14.3372 17.0108 14.2862 17.0363 14.2266 17.0618C14.2011 17.0703 14.1841 17.0873 14.1586 17.0958C14.0991 17.1298 14.0395 17.1554 13.9715 17.1809C13.9545 17.1894 13.9375 17.1979 13.9205 17.2064C13.878 17.2234 13.8269 17.2489 13.7844 17.2659C13.5633 17.3595 13.3422 17.436 13.1125 17.4955H13.104C13.019 17.5211 12.9424 17.5381 12.8574 17.5551C12.8489 17.5551 12.8404 17.5551 12.8404 17.5636C12.7638 17.5806 12.6788 17.5976 12.6023 17.6061C12.5938 17.6061 12.5767 17.6146 12.5682 17.6146C12.4917 17.6231 12.4152 17.6316 12.3386 17.6401C12.3216 17.6401 12.3046 17.6486 12.2876 17.6486C12.211 17.6571 12.143 17.6571 12.0665 17.6656C12.0495 17.6656 12.0239 17.6656 12.0069 17.6741C11.9134 17.6826 11.8198 17.6826 11.7263 17.6826C11.6327 17.6826 11.5392 17.6826 11.4456 17.6741C11.4286 17.6741 11.4031 17.6741 11.3861 17.6656C11.3095 17.6571 11.2415 17.6571 11.165 17.6486C11.148 17.6486 11.131 17.6401 11.1139 17.6401C11.0374 17.6316 10.9609 17.6231 10.8843 17.6146C10.8758 17.6146 10.8588 17.6061 10.8503 17.6061C10.7738 17.5891 10.6887 17.5806 10.6122 17.5636C10.6037 17.5636 10.5952 17.5636 10.5952 17.5551C10.5101 17.5381 10.4251 17.5211 10.3485 17.4955H10.34C10.1104 17.436 9.88077 17.3595 9.66815 17.2659C9.62563 17.2489 9.5746 17.2319 9.53208 17.2064C9.51507 17.1979 9.49806 17.1894 9.48105 17.1809C9.42151 17.1554 9.36198 17.1213 9.29395 17.0958C9.26843 17.0873 9.25142 17.0703 9.22591 17.0618C9.17488 17.0363 9.11535 17.0023 9.06432 16.9768C9.03881 16.9597 9.00479 16.9427 8.97927 16.9257C8.93675 16.9002 8.88572 16.8662 8.8432 16.8407C8.80918 16.8237 8.78366 16.7982 8.74965 16.7812C8.70712 16.7556 8.6646 16.7216 8.62208 16.6961C8.58806 16.6706 8.55404 16.6536 8.52002 16.6281C8.4775 16.6026 8.44348 16.5685 8.40096 16.5345C8.36694 16.509 8.34142 16.4835 8.3074 16.458C8.26488 16.424 8.22236 16.3814 8.17983 16.3474C8.15432 16.3219 8.12881 16.3049 8.10329 16.2794C8.03526 16.2198 7.96722 16.1603 7.90769 16.0923C7.83965 16.0242 7.78012 15.9647 7.72058 15.8967C7.69507 15.8712 7.67806 15.8456 7.65255 15.8201C7.61853 15.7776 7.576 15.7351 7.54198 15.6926C7.51647 15.6585 7.49096 15.633 7.46544 15.599C7.43142 15.5565 7.40591 15.5225 7.37189 15.4799C7.34638 15.4459 7.32086 15.4119 7.30385 15.3779C7.27834 15.3354 7.24432 15.2928 7.21881 15.2503C7.2018 15.2163 7.17628 15.1908 7.15927 15.1568C7.13376 15.1142 7.09974 15.0632 7.07423 15.0207C7.05722 14.9952 7.04021 14.9612 7.0232 14.9356C6.99769 14.8846 6.96367 14.8336 6.93815 14.7741C6.92965 14.7485 6.91264 14.7315 6.90413 14.706C6.87012 14.6465 6.8446 14.587 6.81909 14.5189C6.81058 14.5019 6.80208 14.4849 6.79357 14.4679C6.77656 14.4254 6.75105 14.3743 6.73404 14.3318C6.64049 14.1107 6.56395 13.8896 6.50442 13.6599V13.6514C6.4789 13.5664 6.46189 13.4898 6.44488 13.4048C6.44488 13.3963 6.44488 13.3878 6.43638 13.3878C6.41937 13.3113 6.40236 13.2262 6.39386 13.1497C6.39386 13.1412 6.38535 13.1241 6.38535 13.1156C6.37685 13.0391 6.36834 12.9626 6.35984 12.8945C6.35984 12.8775 6.35133 12.8605 6.35133 12.8435C6.34283 12.767 6.34283 12.6989 6.33432 12.6224C6.33432 12.6054 6.33432 12.5799 6.32582 12.5628C6.31731 12.4693 6.31731 12.3757 6.31731 12.2822C6.31731 12.2822 6.31731 12.2822 6.31731 12.2737V12.2652C6.31731 12.1716 6.31731 12.0781 6.32582 11.993C6.32582 11.976 6.32582 11.9505 6.33432 11.9335C6.34283 11.857 6.34283 11.7889 6.35133 11.7124C6.35133 11.6954 6.35984 11.6784 6.35984 11.6613C6.36834 11.5848 6.37685 11.5083 6.38535 11.4402C6.38535 11.4317 6.39386 11.4147 6.39386 11.4062C6.41086 11.3297 6.41937 11.2446 6.43638 11.1681C6.43638 11.1596 6.43638 11.1511 6.44488 11.1426C6.46189 11.0575 6.4789 10.981 6.50442 10.8959V10.8874C6.56395 10.6578 6.64049 10.4282 6.73404 10.2156C6.75105 10.173 6.76806 10.122 6.79357 10.0795C6.80208 10.0625 6.81058 10.0455 6.81909 10.0285C6.8446 9.96892 6.87862 9.90939 6.90413 9.84135C6.91264 9.81584 6.92965 9.79883 6.93815 9.77331C6.96367 9.72228 6.99769 9.67126 7.0232 9.61172C7.04021 9.58621 7.05722 9.55219 7.07423 9.52668C7.09974 9.48415 7.13376 9.43313 7.15927 9.3906C7.17628 9.35658 7.2018 9.32257 7.21881 9.29705C7.24432 9.25453 7.27834 9.21201 7.30385 9.16948C7.32937 9.13546 7.34638 9.10144 7.37189 9.06742C7.39741 9.0249 7.43142 8.99088 7.46544 8.94836C7.49096 8.91434 7.51647 8.88883 7.54198 8.85481C7.576 8.81229 7.61002 8.76976 7.65255 8.72724C7.67806 8.70172 7.69507 8.67621 7.72058 8.6507C7.78012 8.58266 7.83965 8.51462 7.90769 8.45509C7.97572 8.38705 8.03526 8.32752 8.10329 8.26799C8.12881 8.24247 8.15432 8.22546 8.17983 8.19995C8.22236 8.16593 8.26488 8.12341 8.3074 8.08939C8.34142 8.06388 8.36694 8.03836 8.40096 8.01285C8.44348 7.97883 8.4775 7.95331 8.52002 7.9193C8.55404 7.89378 8.58806 7.86827 8.62208 7.85126C8.6646 7.82575 8.70712 7.79173 8.74114 7.76621C8.77516 7.7492 8.80067 7.72369 8.83469 7.70668C8.87722 7.68117 8.92824 7.64715 8.97077 7.62163C8.99628 7.60462 9.0303 7.58762 9.05581 7.57061C9.10684 7.54509 9.15787 7.51107 9.2174 7.48556C9.24292 7.47705 9.25993 7.46004 9.28544 7.45154C9.34497 7.41752 9.4045 7.39201 9.47254 7.36649C9.48955 7.35799 9.50656 7.34948 9.52357 7.34098C9.56609 7.32397 9.61712 7.29846 9.65965 7.28145C9.88077 7.1879 10.1019 7.11135 10.34 7.05182H10.3485C10.4336 7.02631 10.5101 7.0093 10.5952 6.99229C10.6037 6.99229 10.6122 6.99229 10.6122 6.98378C10.6887 6.96677 10.7738 6.94977 10.8503 6.94126C10.8588 6.94126 10.8758 6.93276 10.8843 6.93276C10.9609 6.92425 11.0374 6.91575 11.1139 6.89874C11.131 6.89874 11.148 6.89023 11.165 6.89023C11.2415 6.88173 11.3095 6.87322 11.3861 6.87322C11.4031 6.87322 11.4201 6.87322 11.4456 6.86472C11.5392 6.85621 11.6327 6.85621 11.7263 6.85621C11.8198 6.85621 11.9134 6.85621 12.0069 6.86472C12.0239 6.86472 12.0409 6.86472 12.0665 6.87322C12.143 6.88173 12.2195 6.88173 12.2876 6.89023C12.3046 6.89023 12.3216 6.89874 12.3386 6.89874C12.4152 6.90724 12.4917 6.91575 12.5682 6.93276C12.5767 6.93276 12.5938 6.94126 12.6023 6.94126C12.6788 6.95827 12.7638 6.96677 12.8404 6.98378C12.8489 6.98378 12.8574 6.98378 12.8574 6.99229C12.9424 7.0093 13.0275 7.02631 13.104 7.05182H13.1125C13.3422 7.11135 13.5718 7.1879 13.7844 7.28145C13.8269 7.29846 13.878 7.31547 13.9205 7.34098C13.9375 7.34948 13.9545 7.35799 13.9715 7.36649C14.031 7.39201 14.0906 7.42603 14.1586 7.45154C14.1841 7.46004 14.2011 7.47705 14.2266 7.48556C14.2777 7.51107 14.3287 7.54509 14.3882 7.57061C14.4137 7.58762 14.4478 7.60462 14.4733 7.62163C14.5158 7.64715 14.5668 7.68117 14.6094 7.70668C14.6434 7.72369 14.6774 7.7492 14.7029 7.76621C14.7454 7.79173 14.788 7.82575 14.8305 7.85126C14.8645 7.87677 14.8985 7.89378 14.9325 7.9193C14.9751 7.94481 15.0091 7.97883 15.0516 8.01285C15.0856 8.03836 15.1196 8.06388 15.1452 8.08939C15.1877 8.12341 15.2302 8.15743 15.2727 8.19995C15.2982 8.22546 15.3237 8.24247 15.3493 8.26799C15.4173 8.32752 15.4853 8.38705 15.5449 8.45509C15.6129 8.52313 15.6724 8.58266 15.732 8.6507C15.7575 8.67621 15.7745 8.70172 15.8 8.72724C15.834 8.76976 15.8766 8.81229 15.9106 8.85481C15.9361 8.88883 15.9616 8.91434 15.9871 8.94836C16.0211 8.99088 16.0466 9.0249 16.0807 9.06742C16.1062 9.10144 16.1317 9.13546 16.1487 9.16948C16.1742 9.21201 16.2082 9.25453 16.2337 9.29705C16.2508 9.33107 16.2763 9.35658 16.2933 9.3906C16.3188 9.43313 16.3528 9.48415 16.3783 9.52668C16.3953 9.55219 16.4123 9.58621 16.4294 9.61172C16.4634 9.66275 16.4889 9.71378 16.5144 9.77331C16.5229 9.79883 16.5399 9.81584 16.5484 9.84135C16.5824 9.90088 16.608 9.96041 16.6335 10.0285C16.642 10.0455 16.6505 10.0625 16.659 10.0795C16.676 10.122 16.7015 10.173 16.7185 10.2156C16.8121 10.4367 16.8886 10.6578 16.9481 10.8874V10.8959C16.9737 10.981 16.9907 11.0575 17.0077 11.1426C17.0077 11.1511 17.0077 11.1596 17.0162 11.1596C17.0332 11.2361 17.0502 11.3212 17.0587 11.3977C17.0587 11.4062 17.0672 11.4232 17.0672 11.4317C17.0757 11.5083 17.0842 11.5848 17.0927 11.6613C17.0927 11.6784 17.1012 11.6954 17.1012 11.7124C17.1097 11.7889 17.1097 11.857 17.1182 11.9335C17.1182 11.9505 17.1182 11.976 17.1267 11.993C17.1352 12.0866 17.1352 12.1801 17.1352 12.2737C17.1352 12.3672 17.1352 12.4608 17.1267 12.5543C17.1267 12.5628 17.1267 12.5884 17.1267 12.6054Z" fill="white"/>
</svg>
