<?xml version="1.0" encoding="UTF-8"?>
<svg id="Layer_2" data-name="Layer 2" xmlns="http://www.w3.org/2000/svg" viewBox="0 0 374 374">
  <defs>
    <style>
      .cls-1 {
        fill: #fff;
      }

      .cls-2 {
        fill: none;
      }
    </style>
  </defs>
  <g id="Layer_3" data-name="Layer 3">
    <g>
      <rect class="cls-2" width="374" height="374"/>
      <g>
        <g>
          <path class="cls-1" d="m132.7208,186.45296c26.05296,31.55554,81.90535,31.55123,107.95584,0,23.54808,24.01197,38.89681,63.31547,38.89681,107.73098H93.82406c0-44.41551,15.34875-83.71901,38.89674-107.73098Z"/>
          <path class="cls-1" d="m87.9515,231.0811c2.12368-5.75608,4.54469-11.30201,7.22063-16.6033-21.97777,7.14426-48.18261-.64849-62.69661-17.44617C12.81492,217.07971,0,249.89465,0,286.97784h76.9486c.88362-19.4891,4.63962-38.64953,11.00289-55.89674Z"/>
          <path class="cls-1" d="m77.54266,204.80213c10.69811.05952,21.55168-3.73912,29.78642-10.26054,4.40022-7.07733,11.5573-11.55162,14.69443-19.09156-9.54953-14.93009-12.76966-34.16121-8.55741-51.44311C70.10492,77.38123-.361,141.09756,41.73206,188.92886c-.00657.00448-.01254.00866-.01851.01313,8.81666,9.85869,22.29934,15.9625,35.82911,15.86013Z"/>
          <path class="cls-1" d="m286.0485,231.0811c-2.12368-5.75608-4.54469-11.30201-7.22063-16.6033,21.97777,7.14426,48.18261-.64849,62.69661-17.44617,19.6606,20.04808,32.47552,52.86302,32.47552,89.94622h-76.9486c-.88362-19.4891-4.63962-38.64953-11.00289-55.89674Z"/>
          <path class="cls-1" d="m296.45734,204.80213c-10.69811.05952-21.55168-3.73912-29.78642-10.26054-4.40022-7.07733-11.5573-11.55162-14.69443-19.09156,9.54953-14.93009,12.76966-34.16121,8.55741-51.44311,43.36118-46.6257,113.8271,17.09063,71.73404,64.92193.00657.00448.01254.00866.01851.01313-8.81666,9.85869-22.29934,15.9625-35.82911,15.86013Z"/>
        </g>
        <path class="cls-1" d="m244.39027,47.63941c-.67432-3.7583-4.2583-6.46362-8.08643-6.104-3.82764.35962-6.79492,3.56299-6.85059,7.37952-.03027,2.09473.74023,3.87561,2.12891,5.43372-2.14062,3.9967-4.55566,7.76343-8.02539,10.69409-1.33203,1.12549-2.88232,2.03955-4.44092,2.83984-2.29736,1.17993-4.63232.97852-6.90576-.24683-2.33887-1.26099-4.32617-2.96167-6.17822-4.8335-4.13916-4.18359-7.58887-8.91235-10.8252-13.80469-1.01611-1.5365-1.98291-3.10583-2.96436-4.64771,4.25488-3.52881,3.60547-8.7793.87109-11.47986-2.95508-2.91809-7.74707-2.92859-10.67236.00183-2.8584,2.86279-3.2915,8.10022.9043,11.4978-3.29297,5.63721-9.22998,14.18994-14.40332,19.11182-1.74658,1.66211-3.59229,3.1875-5.76367,4.28662-2.07275,1.04919-4.20166,1.25122-6.30225.25256-1.45898-.69348-2.91211-1.48938-4.17773-2.48206-3.54004-2.77661-5.97656-6.46582-8.17676-10.33008-.34521-.60645-.34375-.98364.09961-1.57178,1.81934-2.41211,2.13184-5.07837.84229-7.80713-1.25928-2.66431-3.4624-4.13452-6.41064-4.29272-3.99756-.21448-7.28809,2.58533-7.85303,6.56384-.53662,3.78333,1.97559,7.37415,5.78418,8.32483.33594.08374.77441.36621.8833.66064,2.83496,7.66479,5.62793,15.34497,8.4458,23.01624.18408.50232.05322.77917-.33398,1.10486-1.50244,1.26392-2.24268,2.84204-2.18652,4.8656.08594,3.09314.03613,6.19055.01807,9.28601-.01318,2.28503.79688,4.15088,2.7041,5.46924.70264.48608,1.40039,1.02051,2.17773,1.3501,1.85107.78442,3.70508,1.61719,5.63525,2.15186,7.49805,2.07715,15.20752,2.75708,22.93945,3.15845,8.75928.45459,17.51562.32886,26.25537-.46729,5.03711-.45886,10.05078-1.09326,14.9668-2.32715,3.11865-.78271,6.13965-1.81104,8.82715-3.65771,2.03223-1.39624,3.00098-3.2915,2.97559-5.75415-.0332-3.2334-.02051-6.46753-.00195-9.70117.00684-1.15076-.27783-2.20581-.99805-3.08728-.40479-.49622-.43701-.91418-.22656-1.49048,2.83203-7.75366,5.65625-15.51025,8.44434-23.27991.29834-.83264.70654-1.23633,1.59961-1.47351,3.72021-.9884,5.97412-4.74646,5.28076-8.61047Z"/>
        <path class="cls-1" d="m237.88245,111.79041c-.65234.56885-1.34131,1.10754-2.0708,1.60864-4.9585,3.40698-10.17676,4.96692-13.6709,5.84387-6.34375,1.59216-12.55469,2.28809-17.25732,2.71643-5.76221.5249-11.69043.79102-17.62109.79102-3.54199,0-7.1665-.09485-10.77246-.28198-8.22754-.42712-17.0918-1.16882-26.16602-3.68262-2.65479-.73535-4.96973-1.72351-6.8291-2.51758l-.65771-.28003c-2.12061-.89917-3.67773-1.99548-4.6084-2.65039l-.24316-.17065c-.95801-.66211-1.84082-1.39587-2.66064-2.18176-4.20312,8.02283-6.59473,17.1377-6.59473,26.8053,0,14.98352,5.71387,28.65759,15.07764,38.9574-.00732.00537-.01465.01025-.02197.01562,21.36768,25.03174,64.45703,25.03564,85.82666,0-.00732-.00537-.01465-.01025-.02197-.01562,17.7085-18.17163,18.55859-44.37146,8.29199-64.95764Z"/>
      </g>
    </g>
  </g>
</svg>