<?xml version="1.0" encoding="UTF-8"?>
<svg id="Layer_2" data-name="Layer 2" xmlns="http://www.w3.org/2000/svg" viewBox="0 0 374 374">
  <defs>
    <style>
      .cls-1 {
        fill: #fff;
        fill-rule: evenodd;
      }

      .cls-2 {
        fill: none;
      }
    </style>
  </defs>
  <g id="Layer_3" data-name="Layer 3">
    <g>
      <g>
        <path class="cls-1" d="M256.89977,119.77474H117.02856c-8.91329,0-16.4553,7.14951-16.4553,15.59913v144.94304c0,24.04783,20.56917,44.19788,46.62367,44.19788h79.53464c25.36877,0,46.6244-19.49981,46.6244-44.19788V135.37386c0-8.44962-7.542-15.59913-16.4562-15.59913Zm-105.58896,170.94049c0,5.20008-4.11387,9.09968-9.59903,9.09968s-9.59903-3.89959-9.59903-9.09968V147.72326c0-1.94998,1.37129-3.24991,3.42832-3.24991h12.34143c2.05702,0,3.42832,1.29993,3.42832,3.24991v142.99196Zm45.25238,0c0,5.20008-4.11387,9.09968-9.59902,9.09968s-9.59903-3.89959-9.59903-9.09968V147.72326c0-1.94998,1.37129-3.24991,3.42832-3.24991h12.34161c2.05685,0,3.42813,1.29993,3.42813,3.24991v142.99196Zm45.93812,0c0,5.20008-4.11387,9.09968-9.59903,9.09968s-9.59902-3.89959-9.59902-9.09968V147.72326c0-1.94998,1.37129-3.24991,3.42832-3.24991h12.34143c2.05701,0,3.42831,1.29993,3.42831,3.24991v142.99196Z"/>
        <path class="cls-1" d="M286.3806,108.72436H87.54472c-4.79951,0-8.91337-3.89978-8.91337-8.44961v-4.54983c0-4.54966,4.11385-8.44944,8.91337-8.44944h198.83588c4.79978,0,8.91311,3.89978,8.91311,8.44944v4.54983c.68646,4.54983-3.42687,8.44961-8.91311,8.44961Z"/>
        <path class="cls-1" d="M138.96738,75.67159c-.68827,0-2.48937,.79821-2.48937,3.1559v23.39887h-27.93204v-23.39887c0-15.84123,13.28309-29.34227,30.4214-29.34227h96.67567c17.1385,0,30.42086,13.50104,30.42086,29.34227v22.74881h-27.9315v-22.74881c0-2.35769-1.80109-3.1559-2.48936-3.1559h-96.67567Z"/>
      </g>
      <rect class="cls-2" width="374" height="374"/>
    </g>
  </g>
</svg>