<?xml version="1.0" encoding="UTF-8"?>
<svg id="Layer_2" data-name="Layer 2" xmlns="http://www.w3.org/2000/svg" viewBox="0 0 374 374">
  <defs>
    <style>
      .cls-1, .cls-2 {
        fill: #fff;
      }

      .cls-3 {
        stroke: #fff;
        stroke-miterlimit: 10;
        stroke-width: 9.18513px;
      }

      .cls-3, .cls-4 {
        fill: none;
      }

      .cls-2 {
        opacity: .75;
      }
    </style>
  </defs>
  <g id="Layer_3" data-name="Layer 3">
    <g>
      <rect class="cls-4" x="0" width="374" height="374"/>
      <g>
        <g>
          <path class="cls-2" d="M332.03509,118.21128c-1.1616-7.39041-13.1598-9.76453-28.35558-9.69436-20.46089,.08932-46.72949,4.60789-60.45103,7.26278-4.53127,7.65848-11.80676,24.67953-11.12393,54.78376,.70843,31.3232,4.46745,53.02866,6.49062,62.71666,45.95088-17.26351,102.06209-61.65729,93.43991-115.06885Zm-63.96114,44.24699c-.35739,7.24998-5.74388,12.92369-11.98559,12.66842-6.26722-.25536-11.05376-6.34384-10.70272-13.59381,.35104-7.08413,5.48217-12.68758,11.60905-12.68123v.0128h.37645c6.26722,.25527,11.05376,6.33739,10.70281,13.59381Z"/>
          <path class="cls-1" d="M234.10213,117.06893c1.07218-3.28035,21.09271-65.06527,.16594-64.9695v.01271c-.33824,0-.68928,0-1.05302,.05111-83.64988,8.09884-107.97192,97.53082-103.24919,128.56689,8.34776,54.88579,23.77965,67.06919,81.35864,59.72344,6.3017-.85868,12.51743-2.25947,18.57825-4.18668-1.67848-9.01143-4.89502-30.85088-4.59509-64.45896,.38925-43.00877,8.04138-53.78166,8.79448-54.73901Zm-58.4215,116.61325c-14.1235-2.71245-26.04519-13.35135-29.20435-21.99268-3.49731-9.57308,.63826-12.12594,6.66927-12.21526,3.62504-.04466,7.9457,.8042,11.73023,1.58916,9.10085,1.9146,14.78092,5.60345,18.78886,11.96635,5.04181,8.00952,15.70631,25.19651-7.98401,20.65244Zm18.04212-98.92853c-.35739,7.24998-5.74379,12.92369-11.9855,12.66842-6.26722-.25527-11.05376-6.33739-10.69636-13.59381,.34469-7.07778,5.48226-12.68758,11.6026-12.67478v.00635h.38299c6.26077,.25527,11.05366,6.34374,10.69627,13.59381Z"/>
          <path class="cls-1" d="M277.98527,224.74727c-.81644,.05335-1.6114,.28423-2.32945,.67648-25.42617,13.77891-62.91447,28.77044-101.67284,24.55189-8.6732-.94454-18.14415,8.24563-18.14415,8.24563,0,0-10.24329-5.5971-15.59148-4.74832-15.70622,2.49539-20.92676,33.29535-11.95355,41.08782,2.5081,2.17631,10.00064,2.25293,10.00064,2.25293,0,0-1.36575,6.92454-.35095,11.25156,4.77374,20.32055,169.12493,17.18054,178.25764-2.39327,6.43316-13.77256-21.82029-82.00325-38.21588-80.92472Zm-118.20241,45.17873c-3.82919,5.43115-3.50376,7.88824-2.15071,14.16817,1.35295,6.28002-17.91448,10.67721-23.96474,7.21812-8.46259-4.85036-3.2612-31.47634,6.64377-33.69096,.45139-.09717,.91063-.15267,1.3722-.16594h.01906c7.32024-.22331,21.14382,8.118,18.08042,12.47062Zm30.09788,10.441c-1.1487,8.27759-8.34776,14.05333-16.00624,12.92369-7.7095-1.15515-13.02582-8.80083-11.87067-17.07842,1.03396-7.45423,7.02031-13.00666,14.04063-13.03852l-.04466-.03196c.67265-.0043,1.34473,.0427,2.01028,.14043,7.70314,1.1615,13.01946,8.80728,11.87067,17.08477Zm24.46248,18.13153c-6.62452,1.99757-23.28817-5.99915-20.42258-10.84951,3.35697-5.69287,2.83363-8.118,.9637-14.28309-1.51899-5.00359,10.63255-9.75817,18.62291-9.75182l.01906-.0128c1.58953-.05737,3.17318,.22322,4.6462,.82336,8.84558,4.2249,5.88422,31.1509-3.82929,34.07386Z"/>
        </g>
        <path class="cls-3" d="M96.10542,293.43267c-22.10348-18.13233-36.20545-45.65882-36.20545-76.47899,0-35.7095,18.93115-66.99739,47.30473-84.37493"/>
        <path class="cls-3" d="M83.90841,307.76921c-26.15634-21.58613-42.82834-54.25386-42.82834-90.81554,0-43.99007,24.13484-82.34314,59.88545-102.54014"/>
        <path class="cls-3" d="M107.20584,278.18658c-17.41965-14.68427-28.48599-36.66624-28.48599-61.2329,0-27.32476,13.69067-51.4519,34.58669-65.8961"/>
        <path class="cls-3" d="M112.84735,257.45498c-9.52689-10.79393-15.3076-24.97253-15.3076-40.5013,0-15.77844,5.96809-30.16295,15.77002-41.0193"/>
        <path class="cls-3" d="M121.66477,196.27134c-1.10092,2.01647-2.03623,4.11769-2.79741,6.28094-1.62303,4.49626-2.50773,9.34551-2.50773,14.4014,0,12.03236,5.01074,22.89441,13.05939,30.61329"/>
      </g>
    </g>
  </g>
</svg>