<svg width="16" height="16" viewBox="0 0 18 18" fill="none" xmlns="http://www.w3.org/2000/svg">
<path class="channel-icon" d="M11.2655 4H1.73455C0.776838 4 3.05176e-05 4.71705 3.05176e-05 5.60109V12.1266C3.05176e-05 13.0106 0.776838 13.7277 1.73455 13.7277H10.4568L13 16V12.1266V6.09877V5.60109C13 4.71705 12.2232 4 11.2655 4ZM11.8827 11.8778C11.8827 12.2707 11.5351 12.5915 11.1094 12.5915H1.89062C1.46497 12.5915 1.11736 12.2707 1.11736 11.8778V5.78445C1.11736 5.39154 1.46497 5.07067 1.89062 5.07067H11.1059C11.5315 5.07067 11.8792 5.39154 11.8792 5.78445V11.8778H11.8827Z" fill="white"/>
</svg>