<svg width="16" height="16" viewBox="0 0 18 18" fill="none" xmlns="http://www.w3.org/2000/svg">
    <path d="M13 1.75C11.7592 1.75 10.75 2.7591 10.75 4C10.75 5.24073 11.7592 6.25 13 6.25C14.2408 6.25 15.25 5.24073 15.25 4C15.25 2.7591 14.2408 1.75 13 1.75ZM13.0065 3.69565C13.1779 3.69565 13.3169 3.83458 13.3169 4.00608C13.3169 4.17733 13.178 4.31631 13.0065 4.31631C12.8351 4.31631 12.6963 4.17744 12.6963 4.00608C12.6963 3.83447 12.8352 3.69565 13.0065 3.69565Z" stroke="#1D252B" stroke-width="0.5"/>
    <path d="M11.3687 1.63444L11.3687 3.185H12.0235V1.63444C12.0235 1.11556 12.4633 0.693441 13.0037 0.693441C13.5441 0.693441 13.9839 1.11556 13.9839 1.63444V3.185L14.6386 3.185V1.63444C14.6386 0.769001 13.9052 0.0648804 13.0037 0.0648804C12.1023 0.0648804 11.3687 0.769001 11.3687 1.63444" fill="white"/>
    <path d="M13 2C11.8973 2 11 2.89718 11 4C11 5.10266 11.8973 6 13 6C14.1027 6 15 5.10266 15 4C15 2.89718 14.1027 2 13 2ZM13.0065 3.44565C13.316 3.44565 13.5669 3.69647 13.5669 4.00608C13.5669 4.3155 13.316 4.56631 13.0065 4.56631C12.697 4.56631 12.4463 4.3155 12.4463 4.00608C12.4463 3.69647 12.697 3.44565 13.0065 3.44565Z" fill="white"/>
</svg>